<?xml version="1.0" standalone="no"?><!DOCTYPE svg PUBLIC "-//W3C//DTD SVG 1.1//EN" "http://www.w3.org/Graphics/SVG/1.1/DTD/svg11.dtd"><svg t="1769940220641" class="icon" viewBox="0 0 1024 1024" version="1.1" xmlns="http://www.w3.org/2000/svg" p-id="4794" xmlns:xlink="http://www.w3.org/1999/xlink" width="200" height="200"><path d="M416.01219 229.327238a186.660571 186.660571 0 0 1 186.636191 184.661333l57.782857 23.113143c0.609524-6.948571 0.902095-13.994667 0.902095-21.113904C661.333333 280.502857 551.497143 170.666667 415.98781 170.666667 280.502857 170.666667 170.666667 280.502857 170.666667 416.01219c0 135.484952 109.83619 245.321143 245.345523 245.321143 7.094857 0 14.140952-0.292571 21.089524-0.902095l-23.113143-57.782857a186.660571 186.660571 0 0 1 1.999239-373.321143z" p-id="4795"></path><path d="M633.782857 885.345524l62.902857-188.65981 188.65981-62.902857c28.281905-9.411048 29.42781-49.005714 1.755428-60.050286L434.127238 392.533333c-26.112-10.435048-52.028952 15.481905-41.593905 41.593905l181.199238 452.973714c11.068952 27.672381 50.639238 26.502095 60.050286-1.755428z m16.505905-235.032381l-49.127619 147.407238-131.047619-327.606857 327.606857 131.047619-147.431619 49.127619z" p-id="4796"></path></svg>